<svg width="25" height="25" viewBox="0 0 25 25" xmlns="http://www.w3.org/2000/svg">
<g clip-path="url(#clip0_9_2)">
<path d="M21.5245 5.51496C21.0138 5.00397 20.4073 4.59861 19.7399 4.32205C19.0724 4.04548 18.357 3.90314 17.6345 3.90314C16.912 3.90314 16.1966 4.04548 15.5292 4.32205C14.8617 4.59861 14.2553 5.00397 13.7445 5.51496L12.6845 6.57496L11.6245 5.51496C10.5928 4.48327 9.19355 3.90367 7.73452 3.90367C6.27549 3.90367 4.87621 4.48327 3.84452 5.51496C2.81283 6.54666 2.23323 7.94593 2.23323 9.40496C2.23323 10.864 2.81283 12.2633 3.84452 13.295L4.90452 14.355L12.6845 22.135L20.4645 14.355L21.5245 13.295C22.0355 12.7842 22.4409 12.1778 22.7174 11.5103C22.994 10.8429 23.1363 10.1275 23.1363 9.40496C23.1363 8.68248 22.994 7.96707 22.7174 7.29961C22.4409 6.63215 22.0355 6.02572 21.5245 5.51496V5.51496Z" fill="#D24949" stroke-width="2" stroke-linecap="round" stroke-linejoin="round"/>
</g>
<defs>
<clipPath id="clip0_9_2">
<rect width="24" height="24" transform="translate(0.684525 0.904961)"/>
</clipPath>
</defs>
</svg>
